<svg height='100px' width='100px'  fill="#FFFFFF" xmlns="http://www.w3.org/2000/svg" xmlns:xlink="http://www.w3.org/1999/xlink" version="1.1" x="0px" y="0px" viewBox="206 206 100 100" enable-background="new 206 206 100 100" xml:space="preserve"><path d="M299.165,228.578c-0.443-0.443-1.163-0.443-1.606,0l-17.275,17.275c-1.888,1.888-4.398,2.928-7.069,2.928  s-5.181-1.04-7.069-2.928c-3.898-3.898-3.898-10.24,0-14.138l17.275-17.275c0.444-0.443,0.444-1.162,0-1.606  c-0.443-0.443-1.163-0.443-1.606,0L264.54,230.11c-4.512,4.512-4.766,11.693-0.764,16.508l-10.769,10.769l-2.765-2.765  c-0.787-0.787-1.834-1.221-2.948-1.221c-1.113,0-2.16,0.434-2.947,1.221l-1.721,1.721c-1.441,1.441-1.601,3.683-0.486,5.306  l-28.419,28.419c-1.625,1.625-1.625,4.27,0,5.895l2.316,2.316c0.813,0.813,1.88,1.219,2.947,1.219c1.067,0,2.135-0.406,2.948-1.219  l28.418-28.418c0.689,0.475,1.503,0.733,2.358,0.733c1.113,0,2.16-0.434,2.947-1.221l1.721-1.721  c0.787-0.787,1.221-1.834,1.221-2.948c0-1.114-0.434-2.16-1.221-2.948l-2.764-2.764l10.768-10.768  c2.198,1.83,4.939,2.828,7.834,2.828c3.277,0,6.358-1.276,8.675-3.593l17.275-17.275  C299.609,229.741,299.609,229.022,299.165,228.578z M220.326,296.673c-0.74,0.74-1.944,0.74-2.683,0l-2.316-2.316  c-0.74-0.74-0.74-1.944,0-2.684l28.368-28.368l5,4.999L220.326,296.673z M255.771,263.363c0.358,0.358,0.556,0.835,0.556,1.342  c0,0.507-0.197,0.983-0.556,1.342l-1.721,1.721c-0.358,0.358-0.835,0.556-1.342,0.556c-0.507,0-0.983-0.197-1.342-0.556  l-7.135-7.134c-0.74-0.74-0.74-1.944,0-2.683l1.721-1.721c0.358-0.358,0.835-0.556,1.342-0.556c0.507,0,0.983,0.197,1.342,0.556  L255.771,263.363z"></path></svg>