<svg height='100px' width='100px'  fill="#FFFFFF" xmlns="http://www.w3.org/2000/svg" xmlns:xlink="http://www.w3.org/1999/xlink" version="1.1" x="0px" y="0px" viewBox="0 0 512 512" style="enable-background:new 0 0 512 512;" xml:space="preserve"><g><path d="M496,486H26v-81c42.5-8.8,56.9-74,70.9-137.3c0.1-0.6,0.3-1.1,0.4-1.7h119.1c0.2,0.7,0.3,1.5,0.5,2.2   c7.6,32.4,15.5,65.9,26.5,91.1c13.6,31.4,30.9,46.7,52.7,46.7c28.1,0,49.4-19.2,65.1-58.7c9.4-23.8,16-52.9,21.5-81.3h89.2   l-42.9,42.9c-3.9,3.9-3.9,10.2,0,14.1c2,2,4.5,2.9,7.1,2.9s5.1-1,7.1-2.9l60-60c0,0,0.1-0.1,0.1-0.1c0.2-0.2,0.4-0.4,0.5-0.6   c0.1-0.1,0.2-0.3,0.3-0.4c0.1-0.1,0.2-0.2,0.3-0.4c0.1-0.2,0.2-0.3,0.3-0.5c0.1-0.1,0.1-0.2,0.2-0.4c0.1-0.2,0.2-0.3,0.2-0.5   c0.1-0.1,0.1-0.3,0.2-0.4c0.1-0.2,0.1-0.3,0.2-0.5c0.1-0.1,0.1-0.3,0.2-0.5c0-0.2,0.1-0.3,0.1-0.5c0-0.2,0.1-0.3,0.1-0.5   c0-0.2,0.1-0.4,0.1-0.6c0-0.1,0-0.3,0.1-0.4c0.1-0.7,0.1-1.3,0-2c0-0.1,0-0.3-0.1-0.4c0-0.2,0-0.4-0.1-0.6c0-0.2-0.1-0.3-0.1-0.5   c0-0.2-0.1-0.3-0.1-0.5c0-0.2-0.1-0.3-0.2-0.5c-0.1-0.2-0.1-0.3-0.2-0.5c-0.1-0.1-0.1-0.3-0.2-0.4c-0.1-0.2-0.1-0.3-0.2-0.5   c-0.1-0.1-0.1-0.2-0.2-0.4c-0.1-0.2-0.2-0.3-0.3-0.5c-0.1-0.1-0.2-0.3-0.3-0.4c-0.1-0.1-0.2-0.3-0.3-0.4c-0.2-0.2-0.4-0.4-0.6-0.6   c0,0-0.1-0.1-0.1-0.1l-60-60c-3.9-3.9-10.2-3.9-14.1,0c-3.9,3.9-3.9,10.2,0,14.1l42.9,42.9h-85.5c0.5-2.6,1-5.3,1.4-7.9   c4.7-25.9,9.2-50.4,14.8-68.1c6.9-21.8,12.7-23.9,14.3-24.1c5.5-0.5,9.6-5.3,9.1-10.8c-0.5-5.5-5.3-9.6-10.8-9.1   c-18.1,1.5-26.7,22.4-31.7,37.9c-6,18.9-10.6,44-15.4,70.6c-0.7,3.8-1.4,7.6-2.1,11.5H232.1c-6.5-26.9-13.5-53.5-22.6-74.2   c-5.1-11.6-20.6-47-53.9-45.8c-22.5,0.8-39.9,16.3-53.2,47.4c-8.8,20.5-15.3,46.4-21.2,72.6H26V16c0-5.5-4.5-10-10-10S6,10.5,6,16   v480c0,5.5,4.5,10,10,10h480c5.5,0,10-4.5,10-10S501.5,486,496,486z M296,386c-30.5,0-45.8-63.2-59.1-120h125.3   C350.5,325.5,333.8,386,296,386z M156.4,146c8.4-0.3,21.2,2.9,34.9,33.8c8,18.1,14.4,41.8,20.3,66.2H101.7   C113.5,194.4,127.5,147.1,156.4,146z M76.8,266C65,319.2,52.7,373.3,26,384.1V266H76.8z"></path></g></svg>